<?xml version="1.0" encoding="utf-8"?>
<!-- Generator: Adobe Illustrator 22.0.1, SVG Export Plug-In . SVG Version: 6.00 Build 0)  -->
<svg version="1.1" id="Layer_1" xmlns="http://www.w3.org/2000/svg" xmlns:xlink="http://www.w3.org/1999/xlink" x="0px" y="0px"
	 viewBox="0 0 250 250" style="enable-background:new 0 0 250 250;" xml:space="preserve">
<style type="text/css">
	.st0{fill:#FFFFFF;}
</style>
<g id="browser">
	<g>
		<g>
			<g>
				<path class="st0" d="M181.8,41.3H60c-1.9,0-3.5,1.9-3.5,4.2c0,2.3,1.5,4.2,3.5,4.2h121.8c1.9,0,3.5-1.9,3.5-4.2
					C185.3,43.2,183.7,41.3,181.8,41.3z"/>
			</g>
		</g>
		<g>
			<g>
				<path class="st0" d="M231.4,102.4c-7.2,0-12.9,7-12.9,15.6c0,3.5,0.9,6.6,2.6,9.3l-11.1,17V31c0-4.8-2.9-10.1-9-10.1H43.8H17
					c-5,0-9,3.7-9,10.9v206.6c0,6,4.1,10.9,9,10.9h87.7c1.9,0,3.5-1.9,3.5-4.2s-1.5-4.2-3.5-4.2H17c-1.1,0-2.1-1.2-2.1-2.5V70.1h188
					V155l-12.5,19.2c-1.7-1-3.6-1.5-5.6-1.5c-3,0-5.8,1.3-7.9,3.4l-17.2-16.6c0.9-2.1,1.3-4.4,1.3-6.8c0-8.6-5.8-15.6-12.9-15.6
					c-7.2,0-12.9,7-12.9,15.6c0,2.8,0.6,5.4,1.7,7.6L118,180.8c-2-1.5-4.3-2.3-6.8-2.3c-7.2,0-12.9,7-12.9,15.6s5.8,15.6,12.9,15.6
					s12.9-7,12.9-15.6c0-2.6-0.6-5.1-1.4-7.2l19-20.7c1.9,1.3,4.1,2.1,6.4,2.1c2.6,0,5-0.9,7.1-2.5l17.7,17
					c-0.6,1.7-0.9,3.6-0.9,5.5c0,8.6,5.8,15.6,12.9,15.6s12.9-7,12.9-15.6c0-3.2-0.8-6.2-2.2-8.6l7.2-11.1v69.8
					c0,1.4-0.9,2.5-2.1,2.5h-80.1c-1.9,0-3.5,1.9-3.5,4.2s1.5,4.2,3.5,4.2h80c5,0,9-4.9,9-10.9v-80.5l16.5-25.4
					c1.5,0.8,3.2,1.2,5,1.2c7.2,0,12.9-7,12.9-15.6S238.5,102.4,231.4,102.4z M40.3,61.7H14.9V31.8c0-1.4,0.9-2.5,2.1-2.5h23.3
					C40.3,29.3,40.3,61.7,40.3,61.7z M111.2,201.5c-3.3,0-6-3.3-6-7.3s2.7-7.3,6-7.3c3.3,0,6,3.3,6,7.3
					C117.2,198.2,114.5,201.5,111.2,201.5z M148.1,159.9c-3.3,0-6-3.3-6-7.3s2.7-7.3,6-7.3c3.3,0,6,3.3,6,7.3
					C154,156.6,151.4,159.9,148.1,159.9z M184.9,195.6c-3.3,0-6-3.3-6-7.3s2.7-7.3,6-7.3s6,3.3,6,7.3S188.2,195.6,184.9,195.6z
					 M202.9,61.7H47.2V29.3h153.6c1.1,0,2.1,1.2,2.1,2.5V61.7L202.9,61.7z M231.4,125.3c-3.3,0-6-3.3-6-7.3c0-4,2.7-7.3,6-7.3
					s6,3.3,6,7.3C237.4,122.1,234.7,125.3,231.4,125.3z"/>
			</g>
		</g>
		<g>
			<g>
				<path class="st0" d="M86.9,135.1H38.2c-1.9,0-3.5,1.9-3.5,4.2s1.5,4.2,3.5,4.2h48.8c1.9,0,3.5-1.9,3.5-4.2
					S88.9,135.1,86.9,135.1z"/>
			</g>
		</g>
		<g>
			<g>
				<path class="st0" d="M86.9,155.4H38.2c-1.9,0-3.5,1.9-3.5,4.2c0,2.3,1.5,4.2,3.5,4.2h48.8c1.9,0,3.5-1.9,3.5-4.2
					C90.4,157.3,88.9,155.4,86.9,155.4z"/>
			</g>
		</g>
		<g>
			<g>
				<path class="st0" d="M86.9,175.9H38.2c-1.9,0-3.5,1.9-3.5,4.2s1.5,4.2,3.5,4.2h48.8c1.9,0,3.5-1.9,3.5-4.2
					S88.9,175.9,86.9,175.9z"/>
			</g>
		</g>
		<g>
			<g>
				<path class="st0" d="M86.9,196.3H38.2c-1.9,0-3.5,1.9-3.5,4.2s1.5,4.2,3.5,4.2h48.8c1.9,0,3.5-1.9,3.5-4.2
					S88.9,196.3,86.9,196.3z"/>
			</g>
		</g>
		<g>
			<g>
				<path class="st0" d="M86.9,216.7H38.2c-1.9,0-3.5,1.9-3.5,4.2s1.5,4.2,3.5,4.2h48.8c1.9,0,3.5-1.9,3.5-4.2
					S88.9,216.7,86.9,216.7z"/>
			</g>
		</g>
		<g>
			<g>
				<path class="st0" d="M174.2,83.7H43.7c-5,0-9,4.9-9,10.9v17.2c0,6,4.1,10.9,9,10.9h61c1.9,0,3.5-1.9,3.5-4.2s-1.5-4.2-3.5-4.2
					h-61c-1.1,0-2.1-1.2-2.1-2.5V94.5c0-1.4,0.9-2.5,2.1-2.5h130.4c1.1,0,2.1,1.2,2.1,2.5v17.2c0,1.4-0.9,2.5-2.1,2.5h-53.3
					c-1.9,0-3.5,1.9-3.5,4.2c0,2.3,1.5,4.2,3.5,4.2h53.3c5,0,9-4.9,9-10.9V94.5C183.1,88.5,179.1,83.7,174.2,83.7z"/>
			</g>
		</g>
	</g>
</g>
</svg>
