<?xml version="1.0" encoding="utf-8"?>
<!-- Generator: Adobe Illustrator 22.0.1, SVG Export Plug-In . SVG Version: 6.00 Build 0)  -->
<svg version="1.1" id="Layer_1" xmlns="http://www.w3.org/2000/svg" xmlns:xlink="http://www.w3.org/1999/xlink" x="0px" y="0px"
	 viewBox="0 0 250 250" style="enable-background:new 0 0 250 250;" xml:space="preserve">
<style type="text/css">
	.st0{fill:#FFFFFF;}
</style>
<g id="bulb">
	<g>
		<g>
			<g>
				<path class="st0" d="M185.1,87.9h-13.9c-0.8-2.1-1.9-4.2-3.2-6.2l9.8-7.8c1.2-1,1.9-2.3,1.9-3.7c0-1.4-0.7-2.7-1.9-3.7
					l-11.6-9.2c-2.5-2-6.7-2-9.2,0l-9.8,7.8c-2.5-1-5.1-1.9-7.8-2.6v-11c0-2.8-2.9-5.2-6.5-5.2h-16.3c-3.6,0-6.5,2.3-6.5,5.2v11
					c-2.7,0.7-5.3,1.5-7.8,2.6l-9.8-7.8c-2.5-2-6.7-2-9.2,0l-11.6,9.2c-1.2,1-1.9,2.3-1.9,3.7c0,1.4,0.7,2.7,1.9,3.7l9.8,7.8
					c-1.3,2-2.4,4.1-3.2,6.2H64.5c-3.6,0-6.5,2.3-6.5,5.2v13c0,2.8,2.9,5.2,6.5,5.2h13.9c0.8,2.1,1.9,4.2,3.2,6.2l-9.8,7.8
					c-2.5,2-2.5,5.3,0,7.3l11.6,9.2c2.5,2,6.7,2,9.2,0l9.8-7.8c2.5,1,5.1,1.9,7.8,2.6v11c0,2.8,2.9,5.2,6.5,5.2H133
					c3.6,0,6.5-2.3,6.5-5.2v-11c2.7-0.7,5.3-1.5,7.8-2.6l9.8,7.8c2.5,2,6.7,2,9.2,0l11.6-9.2c1.2-1,1.9-2.3,1.9-3.7
					c0-1.4-0.7-2.7-1.9-3.7l-9.8-7.8c1.3-2,2.4-4.1,3.2-6.2h13.9c3.6,0,6.5-2.3,6.5-5.2V93C191.6,90.2,188.7,87.9,185.1,87.9z
					 M182.5,103.9h-14.7c-2.1,0-4,1.2-4.5,2.8c-1,3.3-2.6,6.5-4.9,9.4c-1.1,1.4-0.9,3.3,0.7,4.5l10.4,8.3l-7.8,6.2l-10.4-8.3
					c-1.5-1.2-3.9-1.4-5.7-0.5c-3.6,1.8-7.6,3.1-11.8,3.9c-2.1,0.4-3.5,1.9-3.5,3.5v11.7h-11v-11.7c0-1.7-1.5-3.2-3.5-3.5
					c-4.2-0.8-8.1-2.1-11.8-3.9c-1.8-0.9-4.2-0.7-5.7,0.5l-10.4,8.3l-7.8-6.2l10.4-8.3c1.5-1.2,1.8-3.1,0.7-4.5
					c-2.3-2.9-3.9-6-4.9-9.4c-0.5-1.6-2.3-2.8-4.5-2.8H67.2v-8.7h14.7c2.1,0,4-1.2,4.5-2.8c1-3.3,2.6-6.5,4.9-9.4
					c1.1-1.4,0.9-3.3-0.7-4.5l-10.4-8.3L88,64l10.4,8.3c1.5,1.2,3.9,1.4,5.7,0.5c3.6-1.8,7.6-3.1,11.8-3.9c2.1-0.4,3.5-1.9,3.5-3.5
					V53.7h11v11.7c0,1.7,1.5,3.2,3.5,3.5c4.2,0.8,8.1,2.1,11.8,3.9c1.8,0.9,4.2,0.7,5.7-0.5l10.4-8.3l7.8,6.2l-10.4,8.3
					c-1.5,1.2-1.8,3.1-0.7,4.5c2.3,2.9,3.9,6,4.9,9.4c0.5,1.6,2.3,2.8,4.5,2.8h14.7L182.5,103.9L182.5,103.9z"/>
			</g>
		</g>
		<g>
			<g>
				<path class="st0" d="M124.8,80c-13.5,0-24.6,8.8-24.6,19.5s11,19.5,24.6,19.5s24.6-8.8,24.6-19.5S138.4,80,124.8,80z
					 M124.8,111.8c-8.5,0-15.4-5.5-15.4-12.2s6.9-12.2,15.4-12.2s15.4,5.5,15.4,12.2S133.3,111.8,124.8,111.8z"/>
			</g>
		</g>
		<g>
			<g>
				<path class="st0" d="M19.4,95.9H4.2c-2.5,0-4.6,1.6-4.6,3.6s2.1,3.6,4.6,3.6h15.2c2.5,0,4.6-1.6,4.6-3.6S21.9,95.9,19.4,95.9z"
					/>
			</g>
		</g>
		<g>
			<g>
				<path class="st0" d="M245.4,95.9h-15.2c-2.5,0-4.6,1.6-4.6,3.6s2.1,3.6,4.6,3.6h15.2c2.5,0,4.6-1.6,4.6-3.6
					S247.9,95.9,245.4,95.9z"/>
			</g>
		</g>
		<g>
			<g>
				<path class="st0" d="M53.5,156.2c-1.8-1.4-4.7-1.4-6.5,0l-10.8,8.6c-1.8,1.4-1.8,3.7,0,5.2s4.7,1.4,6.5,0l10.8-8.6
					C55.3,160,55.3,157.7,53.5,156.2z"/>
			</g>
		</g>
		<g>
			<g>
				<path class="st0" d="M213.3,29.2c-1.8-1.4-4.7-1.4-6.5,0L196,37.8c-1.8,1.4-1.8,3.7,0,5.2c1.8,1.4,4.7,1.4,6.5,0l10.8-8.6
					C215.1,32.9,215.1,30.6,213.3,29.2z"/>
			</g>
		</g>
		<g>
			<g>
				<path class="st0" d="M124.8,0c-2.5,0-4.6,1.6-4.6,3.6v12.1c0,2,2.1,3.6,4.6,3.6s4.6-1.6,4.6-3.6V3.6C129.4,1.6,127.3,0,124.8,0z
					"/>
			</g>
		</g>
		<g>
			<g>
				<path class="st0" d="M213.3,164.8l-10.8-8.6c-1.8-1.4-4.7-1.4-6.5,0s-1.8,3.7,0,5.2l10.8,8.6c1.8,1.4,4.7,1.4,6.5,0
					C215.1,168.5,215.1,166.2,213.3,164.8z"/>
			</g>
		</g>
		<g>
			<g>
				<path class="st0" d="M53.5,37.7l-10.8-8.6c-1.8-1.4-4.7-1.4-6.5,0s-1.8,3.7,0,5.2L47,42.9c1.8,1.4,4.7,1.4,6.5,0
					C55.3,41.4,55.3,39.1,53.5,37.7z"/>
			</g>
		</g>
		<g>
			<g>
				<path class="st0" d="M216.3,90.6c-4.9-33.5-38.3-60-80.2-64.1c-2.5-0.2-4.8,1.2-5.1,3.2s1.5,3.8,4,4.1
					c38.1,3.7,67.8,27.4,72.2,57.7c0.3,1.9,2.3,3.2,4.5,3.2c0.2,0,0.4,0,0.5,0C214.8,94.4,216.6,92.6,216.3,90.6z"/>
			</g>
		</g>
		<g>
			<g>
				<path class="st0" d="M212.2,104.4c-2.5-0.3-4.8,1.2-5.1,3.2c-3.1,19.6-17.1,37-38.2,47.5c-9.1,4.6-14.6,12.4-14.6,20.9v15H95.4
					v-15.3c0-8.2-5.4-16-14.1-20.3C56.7,143.3,42,122.3,42,99.3c0-33.2,31.3-61.4,72.8-65.4c2.5-0.2,4.3-2.1,4-4.1s-2.6-3.4-5.1-3.2
					c-45.9,4.5-80.8,35.9-80.8,72.7c0,12.7,4.2,25.2,12,36.2c7.6,10.6,18.6,19.7,31.7,26.1c6,3,9.8,8.4,9.8,14.1v15.9
					c-4.7,1.3-8,4.8-8,8.9v5.2c0,2.2,1,4.2,2.5,5.8c-1.6,1.6-2.5,3.6-2.5,5.8v5.2c0,5.2,5.3,9.5,11.9,9.5h14.4v8.2
					c0,4.8,4.9,8.6,10.8,8.6h18.9c6,0,10.8-3.9,10.8-8.6V232h14.4c6.6,0,11.9-4.3,11.9-9.5v-5.2c0-2.2-1-4.2-2.5-5.8
					c1.6-1.6,2.5-3.6,2.5-5.8v-5.2c0-4.1-3.4-7.7-8-8.9V176c0-6,3.8-11.5,10.3-14.7c23.5-11.7,39-31,42.5-52.8
					C216.5,106.5,214.7,104.7,212.2,104.4z M136,240.2c0,0.7-0.8,1.3-1.7,1.3h-18.9c-0.9,0-1.7-0.6-1.7-1.3V232H136V240.2z
					 M162.3,222.5c0,1.2-1.3,2.2-2.8,2.2c-8.1,0-61.8,0-69.5,0c-1.5,0-2.8-1-2.8-2.2v-5.2c0-1.2,1.3-2.2,2.8-2.2h69.5
					c1.5,0,2.8,1,2.8,2.2V222.5z M162.3,205.7c0,1.2-1.3,2.2-2.8,2.2H90.1c-1.5,0-2.8-1-2.8-2.2v-5.2c0-1.2,1.3-2.2,2.8-2.2h69.5
					c1.5,0,2.8,1,2.8,2.2L162.3,205.7L162.3,205.7z"/>
			</g>
		</g>
	</g>
</g>
</svg>
