<?xml version="1.0" encoding="utf-8"?>
<!-- Generator: Adobe Illustrator 22.0.1, SVG Export Plug-In . SVG Version: 6.00 Build 0)  -->
<svg version="1.1" id="Layer_1" xmlns="http://www.w3.org/2000/svg" xmlns:xlink="http://www.w3.org/1999/xlink" x="0px" y="0px"
	 viewBox="0 0 250 250" style="enable-background:new 0 0 250 250;" xml:space="preserve">
<style type="text/css">
	.st0{fill:#FFFFFF;}
</style>
<g id="increase">
	<g>
		<g>
			<g>
				<path class="st0" d="M246.3,108.6c0-5.3-4.7-9.5-10.5-9.5h-66.4c-5.8,0-10.5,4.3-10.5,9.5v12.2c0,2.2,0.8,4.2,2.2,5.9
					c-1.4,1.6-2.2,3.7-2.2,5.9v12.2c0,0.9,0.1,1.7,0.4,2.6c-0.9-0.2-1.8-0.4-2.8-0.4h-23.7c-2.2,0-4.1,1.6-4.1,3.7
					c0,2,1.8,3.7,4.1,3.7h23.7c1.3,0,2.4,1,2.4,2.2v12.2c0,1.2-1.1,2.2-2.4,2.2H89.9c-1.3,0-2.4-1-2.4-2.2v-12.2
					c0-1.2,1.1-2.2,2.4-2.2h23.7c2.2,0,4.1-1.6,4.1-3.7c0-2-1.8-3.7-4.1-3.7H89.9c-5.8,0-10.5,4.3-10.5,9.5v12.2
					c0,2.2,0.8,4.2,2.2,5.9c-1.4,1.6-2.2,3.7-2.2,5.9v12.2c0,0.9,0.1,1.7,0.4,2.6c-0.9-0.2-1.8-0.4-2.8-0.4H10.5
					C4.7,195,0,199.3,0,204.5v12.2c0,2.2,0.8,4.2,2.2,5.9c-1.4,1.6-2.2,3.7-2.2,5.9v12.2c0,5.3,4.7,9.5,10.5,9.5H77
					c2.4,0,4.7-0.8,6.5-2c1.8,1.3,4,2,6.5,2h66.4c2.4,0,4.7-0.8,6.5-2c1.8,1.3,4,2,6.5,2h66.4c5.8,0,10.5-4.3,10.5-9.5v-12.2
					c0-2.2-0.8-4.2-2.2-5.9c1.4-1.6,2.2-3.7,2.2-5.9v-12.2c0-2.2-0.8-4.2-2.2-5.9c1.4-1.6,2.2-3.7,2.2-5.9v-12.2
					c0-2.2-0.8-4.2-2.2-5.9c1.4-1.6,2.2-3.7,2.2-5.9v-12.2c0-2.2-0.8-4.2-2.2-5.9c1.4-1.6,2.2-3.7,2.2-5.9v-12.2
					c0-2.2-0.8-4.2-2.2-5.9c1.4-1.6,2.2-3.7,2.2-5.9L246.3,108.6L246.3,108.6z M79.4,240.7c0,1.2-1.1,2.2-2.4,2.2H10.5
					c-1.3,0-2.4-1-2.4-2.2v-12.2c0-1.2,1.1-2.2,2.4-2.2H77c1.3,0,2.4,1,2.4,2.2V240.7L79.4,240.7z M79.4,216.8
					c0,1.2-1.1,2.2-2.4,2.2H10.5c-1.3,0-2.4-1-2.4-2.2v-12.2c0-1.2,1.1-2.2,2.4-2.2H77c1.3,0,2.4,1,2.4,2.2V216.8L79.4,216.8z
					 M158.8,240.7c0,1.2-1.1,2.2-2.4,2.2H89.9c-1.3,0-2.4-1-2.4-2.2v-12.2c0-1.2,1.1-2.2,2.4-2.2h66.4c1.3,0,2.4,1,2.4,2.2
					L158.8,240.7L158.8,240.7z M158.8,216.8c0,1.2-1.1,2.2-2.4,2.2H89.9c-1.3,0-2.4-1-2.4-2.2v-12.2c0-1.2,1.1-2.2,2.4-2.2h66.4
					c1.3,0,2.4,1,2.4,2.2L158.8,216.8L158.8,216.8z M158.8,192.8c0,1.2-1.1,2.2-2.4,2.2H89.9c-1.3,0-2.4-1-2.4-2.2v-12.2
					c0-1.2,1.1-2.2,2.4-2.2h66.4c1.3,0,2.4,1,2.4,2.2L158.8,192.8L158.8,192.8z M166.9,132.6c0-1.2,1.1-2.2,2.4-2.2h66.4
					c1.3,0,2.4,1,2.4,2.2v12.2c0,1.2-1.1,2.2-2.4,2.2h-66.4c-1.3,0-2.4-1-2.4-2.2V132.6z M166.9,156.5c0-1.2,1.1-2.2,2.4-2.2h66.4
					c1.3,0,2.4,1,2.4,2.2v12.2c0,1.2-1.1,2.2-2.4,2.2h-66.4c-1.3,0-2.4-1-2.4-2.2V156.5z M166.9,180.5c0-1.2,1.1-2.2,2.4-2.2h66.4
					c1.3,0,2.4,1,2.4,2.2v12.2c0,1.2-1.1,2.2-2.4,2.2h-66.4c-1.3,0-2.4-1-2.4-2.2V180.5z M166.9,204.5c0-1.2,1.1-2.2,2.4-2.2h66.4
					c1.3,0,2.4,1,2.4,2.2v12.2c0,1.2-1.1,2.2-2.4,2.2h-66.4c-1.3,0-2.4-1-2.4-2.2V204.5z M238.2,240.7L238.2,240.7
					c0,1.2-1.1,2.2-2.4,2.2h-66.4c-1.3,0-2.4-1-2.4-2.2v-12.2c0-1.2,1.1-2.2,2.4-2.2h66.4c1.3,0,2.4,1,2.4,2.2L238.2,240.7
					L238.2,240.7z M238.2,120.8c0,1.2-1.1,2.2-2.4,2.2h-66.4c-1.3,0-2.4-1-2.4-2.2v-12.2c0-1.2,1.1-2.2,2.4-2.2h66.4
					c1.3,0,2.4,1,2.4,2.2L238.2,120.8L238.2,120.8z"/>
			</g>
		</g>
		<g>
			<g>
				<path class="st0" d="M140.9,59h-17.3c-2.2,0-4.1,1.6-4.1,3.7s1.8,3.7,4.1,3.7h7.4L7.5,178.1c-1.6,1.4-1.6,3.8,0,5.2
					c0.8,0.7,1.8,1.1,2.9,1.1c1,0,2.1-0.4,2.9-1.1L136.8,71.5v6.9c0,2,1.8,3.7,4.1,3.7s4.1-1.6,4.1-3.7V62.7
					C145,60.7,143.1,59,140.9,59z"/>
			</g>
		</g>
		<g>
			<g>
				<path class="st0" d="M245.9,50.7c-2.2-0.6-4.4,0.6-5,2.5c-4.8,15.4-20.6,26.2-38.4,26.2c-22,0-39.9-16.2-39.9-36.1
					s17.9-36.1,39.9-36.1c19.8,0,36.3,12.8,39.4,30.4c0.3,2,2.4,3.4,4.6,3.1c2.2-0.3,3.7-2.2,3.4-4.2c-1.8-10.1-7.5-19.4-16.1-26.1
					C225.2,3.7,214,0,202.5,0c-26.5,0-48,19.5-48,43.4s21.5,43.4,48,43.4c21.3,0,40.3-13,46.2-31.5
					C249.3,53.3,248.1,51.3,245.9,50.7z"/>
			</g>
		</g>
		<g>
			<g>
				<path class="st0" d="M202.3,15c-17.3,0-31.4,12.7-31.4,28.4s14.1,28.4,31.4,28.4s31.4-12.7,31.4-28.4
					C233.6,27.7,219.6,15,202.3,15z M202.3,64.4c-12.8,0-23.3-9.4-23.3-21s10.4-21,23.3-21c12.8,0,23.3,9.4,23.3,21
					C225.5,55,215.1,64.4,202.3,64.4z"/>
			</g>
		</g>
		<g>
			<g>
				<path class="st0" d="M204.3,40.7v-7.3c1.7,0.1,2.6,0.5,4.4,1.3c0.9,0.4,2.1,0.3,2.8-0.9c0.6-0.9,1-2.4-0.2-3.3
					c-1.7-1.3-4.8-1.7-7-1.7v-1.1c0-0.6-0.8-1-1.6-1s-1.6,0.4-1.6,1v1.2c-5.3,0.6-8.9,3.2-8.9,8.1c0,5,4,6.6,8.9,8.3v8.2
					c-2.4-0.3-3.6-1.1-5.8-2.7c-1.1-0.8-2.2-0.5-3.1,0.6c-1.1,1.4-0.9,2.5,0,3.6c1.7,2.1,5.5,3.3,9,3.3v1.2c0,0.6,0.8,1,1.6,1
					c0.7,0,1.6-0.4,1.6-1v-1.3c4.6-0.6,8.6-3.3,8.6-8.8C212.9,44.5,209.4,42.4,204.3,40.7z M201.5,39.8c-2.7-1-3.7-1.8-3.7-3.3
					c0-1.8,1.7-2.6,3.7-2.9V39.8z M203.9,53.5v-7.2c2.8,1.1,3.4,2.4,3.4,3.8C207.3,52,206,53.1,203.9,53.5z"/>
			</g>
		</g>
	</g>
</g>
</svg>
