<?xml version="1.0" encoding="utf-8"?>
<!-- Generator: Adobe Illustrator 22.0.1, SVG Export Plug-In . SVG Version: 6.00 Build 0)  -->
<svg version="1.1" id="Layer_1" xmlns="http://www.w3.org/2000/svg" xmlns:xlink="http://www.w3.org/1999/xlink" x="0px" y="0px"
	 viewBox="0 0 250 250" style="enable-background:new 0 0 250 250;" xml:space="preserve">
<style type="text/css">
	.st0{fill:#FFFFFF;}
</style>
<g id="rocket">
	<g>
		<g>
			<g>
				<path class="st0" d="M36.9,165.5c-1.4-1.3-3.7-1.3-5.2,0L19.3,177c-1.4,1.3-1.4,3.4,0,4.8c1.4,1.3,3.7,1.3,5.2,0l12.4-11.5
					C38.4,168.9,38.4,166.8,36.9,165.5z"/>
			</g>
		</g>
		<g>
			<g>
				<path class="st0" d="M49,176.6c-1.4-1.3-3.7-1.3-5.2,0l-12.4,11.5c-1.4,1.3-1.4,3.4,0,4.8c1.4,1.3,3.7,1.3,5.2,0L49,181.4
					C50.5,180.1,50.5,177.9,49,176.6z"/>
			</g>
		</g>
		<g>
			<g>
				<path class="st0" d="M73.2,198.9c-1.4-1.3-3.7-1.3-5.2,0l-12.4,11.5c-1.4,1.3-1.4,3.4,0,4.8c1.4,1.3,3.7,1.3,5.2,0l12.4-11.5
					C74.7,202.3,74.7,200.2,73.2,198.9z"/>
			</g>
		</g>
		<g>
			<g>
				<path class="st0" d="M61.1,187.7c-1.4-1.3-3.7-1.3-5.2,0l-12.4,11.5c-1.4,1.3-1.4,3.4,0,4.8c1.4,1.3,3.7,1.3,5.2,0l12.4-11.5
					C62.6,191.2,62.6,189.1,61.1,187.7z"/>
			</g>
		</g>
		<g>
			<g>
				<path class="st0" d="M240.9,0.3c-15.9,4.3-61.5,16.6-76.6,20.6c-0.6,0.2-1.1,0.5-1.6,0.9l-51.2,47.1l-22.9,1.8
					c-32.5,2.5-63.1,15.6-86.1,36.8c-4.9,4.5-1.8,12.1,5,12.7l44.4,3.6l-4.6,4.2c-2.9,2.6-2.9,6.9,0,9.5l4.4,4.1l-9,8.3
					c-3.5,3.2-3.5,8.5,0,11.8c3.9,3.6,27.7,25.5,31.6,29.1c3.5,3.3,9.3,3.3,12.8,0l9-8.3l4.2,3.9c3,2.7,7.8,2.7,10.8,0l4.4-4
					l3.9,40.9c0.3,2.9,2.3,5.3,5.3,6.3s6.2,0.3,8.5-1.7c14.2-13.1,24.9-28.5,31.9-45.8c0.7-1.7-0.3-3.7-2.2-4.3s-4,0.2-4.7,2
					c-6.6,16.4-16.8,31-30.2,43.4c-0.5,0.4-1.2,0.2-1.3-0.4l-4.4-46.5l44.8-41.2c-1.5,16.7-1.9,21.1-4,29.5c-0.4,1.8,0.8,3.6,2.8,4
					s3.9-0.7,4.4-2.5c2.5-10.3,2.7-15.2,4.8-38.4l51.2-47.1c0.4-0.4,0.8-0.9,0.9-1.4l10.2-32l0,0l12.2-38.5
					C251.3,3.4,246.3-1.2,240.9,0.3z M8.2,113.4c-0.6-0.1-0.9-0.8-0.5-1.2c21.8-20.1,50.8-32.5,81.6-34.9l14.2-1.1l-44.8,41.2
					L8.2,113.4z M60.2,125.7l19.9,18.4l-7.6,7c-7.9-7.3-18.2-16.7-19.9-18.3L60.2,125.7z M58.5,164c-0.5,0.4-0.9,0.9-1.2,1.4
					l-9.2-8.5c-0.7-0.6-0.7-1.6,0-2.3l9-8.3c4.7,4.3,7,6.4,10.3,9.5L58.5,164z M66.9,171.4c-0.9,0.8-2.2,0.8-3.1,0s-0.9-2.1,0-2.8
					c3-2.7,69-63.5,72.9-67.2c0.9-0.8,2.2-0.8,3.1,0c0.9,0.8,0.9,2.1,0,2.8l-48.9,45C88.3,151.7,69.2,169.3,66.9,171.4z M82.1,186
					c-0.4,0.4-1,0.5-1.2,0.5s-0.8-0.1-1.2-0.5l-9.2-8.5c0.5-0.3,1-0.7,1.5-1.1l8.9-8.2l10.3,9.5L82.1,186z M106.1,181.5
					C106.1,181.6,106.1,181.6,106.1,181.5c-0.2,0.1-0.3,0.1-0.5,0c-2.2-2-17.4-16-19.7-18.1l7.6-7l19.9,18.4L106.1,181.5z
					 M220.6,76.2c-4.8,4.5-97.6,89.9-101.9,93.8l-19.9-18.4l46.5-42.8c3.4-3.1,4-8.4-0.4-12.4c-3.6-3.3-9.5-3.3-13.1,0l-46.5,42.8
					l-20-18.2c4.1-3.7,97.2-89.5,101.9-93.8l31.8-8.6L229.8,47L220.6,76.2z M232.2,39.5L207,16.4l35.5-9.6L232.2,39.5z"/>
			</g>
		</g>
		<g>
			<g>
				<path class="st0" d="M186.5,58.4c-2.1-1.9-4.5-3.5-7.2-4.6c-1.8-0.8-4,0-4.8,1.7s0,3.7,1.8,4.5c10.9,4.5,13.4,17.7,5,25.4
					c-6.7,6.1-17.5,6.1-24.1,0c-8.4-7.7-5.9-20.9,5-25.4c1.8-0.8,2.7-2.8,1.8-4.5c-0.8-1.7-3-2.4-4.8-1.7
					c-15.5,6.5-19.2,25.3-7.2,36.3c4.8,4.4,11,6.6,17.2,6.6C190.9,96.8,201.9,72.5,186.5,58.4z"/>
			</g>
		</g>
	</g>
</g>
</svg>
